REM MD5 6a634dfc4ee7e465c135ba37bdc3b019
FILE "Ace Combat (Japan).bin" BINARY
  TRACK 01 MODE2/2352
    INDEX 01 00:00:00
  TRACK 02 AUDIO
    INDEX 00 10:01:52
    INDEX 01 10:03:52
  TRACK 03 AUDIO
    INDEX 00 13:29:72
    INDEX 01 13:31:72
  TRACK 04 AUDIO
    INDEX 00 16:12:29
    INDEX 01 16:14:29
  TRACK 05 AUDIO
    INDEX 00 18:45:44
    INDEX 01 18:47:44
  TRACK 06 AUDIO
    INDEX 00 21:29:71
    INDEX 01 21:31:71
  TRACK 07 AUDIO
    INDEX 00 22:45:57
    INDEX 01 22:47:57
  TRACK 08 AUDIO
    INDEX 00 24:44:65
    INDEX 01 24:46:65
  TRACK 09 AUDIO
    INDEX 00 27:31:51
    INDEX 01 27:33:51
  TRACK 10 AUDIO
    INDEX 00 30:31:01
    INDEX 01 30:33:01
  TRACK 11 AUDIO
    INDEX 00 33:00:47
    INDEX 01 33:02:47
  TRACK 12 AUDIO
    INDEX 00 35:05:03
    INDEX 01 35:07:03
  TRACK 13 AUDIO
    INDEX 00 36:30:34
    INDEX 01 36:32:34
  TRACK 14 AUDIO
    INDEX 00 37:56:35
    INDEX 01 37:58:35
  TRACK 15 AUDIO
    INDEX 00 38:09:18
    INDEX 01 38:11:18
  TRACK 16 AUDIO
    INDEX 00 39:17:64
    INDEX 01 39:19:64
  TRACK 17 AUDIO
    INDEX 00 39:31:65
    INDEX 01 39:33:65
  TRACK 18 AUDIO
    INDEX 00 41:33:21
    INDEX 01 41:35:21
  TRACK 19 AUDIO
    INDEX 00 44:04:52
    INDEX 01 44:06:52
  TRACK 20 AUDIO
    INDEX 00 44:56:53
    INDEX 01 44:58:53
  TRACK 21 AUDIO
    INDEX 00 46:27:57
    INDEX 01 46:29:57
  TRACK 22 AUDIO
    INDEX 00 46:43:37
    INDEX 01 46:45:37
  TRACK 23 AUDIO
    INDEX 00 46:50:00
    INDEX 01 46:52:00
  TRACK 24 AUDIO
    INDEX 00 47:01:70
    INDEX 01 47:03:70
  TRACK 25 AUDIO
    INDEX 00 47:08:33
    INDEX 01 47:10:33
  TRACK 26 AUDIO
    INDEX 00 47:18:68
    INDEX 01 47:20:68
  TRACK 27 AUDIO
    INDEX 00 47:25:50
    INDEX 01 47:27:50
  TRACK 28 AUDIO
    INDEX 00 47:32:14
    INDEX 01 47:34:14
  TRACK 29 AUDIO
    INDEX 00 47:44:68
    INDEX 01 47:46:68
  TRACK 30 AUDIO
    INDEX 00 47:53:37
    INDEX 01 47:55:37
  TRACK 31 AUDIO
    INDEX 00 48:09:73
    INDEX 01 48:11:73
  TRACK 32 AUDIO
    INDEX 00 48:22:10
    INDEX 01 48:24:10
  TRACK 33 AUDIO
    INDEX 00 48:28:48
    INDEX 01 48:30:48
  TRACK 34 AUDIO
    INDEX 00 48:35:17
    INDEX 01 48:37:17
  TRACK 35 AUDIO
    INDEX 00 48:46:58
    INDEX 01 48:48:58
  TRACK 36 AUDIO
    INDEX 00 48:53:39
    INDEX 01 48:55:39
  TRACK 37 AUDIO
    INDEX 00 49:03:11
    INDEX 01 49:05:11
  TRACK 38 AUDIO
    INDEX 00 49:27:69
    INDEX 01 49:29:69
  TRACK 39 AUDIO
    INDEX 00 49:34:32
    INDEX 01 49:36:32
  TRACK 40 AUDIO
    INDEX 00 49:41:74
    INDEX 01 49:43:74
  TRACK 41 AUDIO
    INDEX 00 49:52:36
    INDEX 01 49:54:36
  TRACK 42 AUDIO
    INDEX 00 49:58:74
    INDEX 01 50:00:74
  TRACK 43 AUDIO
    INDEX 00 50:05:37
    INDEX 01 50:07:37
  TRACK 44 AUDIO
    INDEX 00 50:29:38
    INDEX 01 50:31:38
  TRACK 45 AUDIO
    INDEX 00 50:42:54
    INDEX 01 50:44:54
  TRACK 46 AUDIO
    INDEX 00 50:49:17
    INDEX 01 50:51:17
  TRACK 47 AUDIO
    INDEX 00 50:55:70
    INDEX 01 50:57:70
  TRACK 48 AUDIO
    INDEX 00 51:14:18
    INDEX 01 51:16:18
  TRACK 49 AUDIO
    INDEX 00 51:20:56
    INDEX 01 51:22:56
  TRACK 50 AUDIO
    INDEX 00 51:35:42
    INDEX 01 51:37:42
  TRACK 51 AUDIO
    INDEX 00 51:42:05
    INDEX 01 51:44:05
  TRACK 52 AUDIO
    INDEX 00 51:52:65
    INDEX 01 51:54:65
  TRACK 53 AUDIO
    INDEX 00 52:00:39
    INDEX 01 52:02:39
  TRACK 54 AUDIO
    INDEX 00 52:07:02
    INDEX 01 52:09:02
  TRACK 55 AUDIO
    INDEX 00 52:13:40
    INDEX 01 52:15:40
  TRACK 56 AUDIO
    INDEX 00 52:20:04
    INDEX 01 52:22:04
  TRACK 57 AUDIO
    INDEX 00 52:26:43
    INDEX 01 52:28:43
  TRACK 58 AUDIO
    INDEX 00 52:33:19
    INDEX 01 52:35:19
  TRACK 59 AUDIO
    INDEX 00 52:45:53
    INDEX 01 52:47:53
  TRACK 60 AUDIO
    INDEX 00 52:52:34
    INDEX 01 52:54:34
  TRACK 61 AUDIO
    INDEX 00 53:00:65
    INDEX 01 53:02:65
  TRACK 62 AUDIO
    INDEX 00 53:20:67
    INDEX 01 53:22:67
  TRACK 63 AUDIO
    INDEX 00 53:32:60
    INDEX 01 53:34:60
REM LEADOUT 57:35:31
